<svg width="150" height="150" viewBox="-75 -75 150 150" fill="none" stroke="black" xmlns="http://www.w3.org/2000/svg">
  <g transform="scale(0.5 0.5)">
    <g stroke-width="2">
      <g >
        <rect x="-150" y="-150" width="300" height="300" fill="white" stroke="#ddd" />
        <line x1="-150" y1="0" x2="150" y2="0" stroke="#ddd" />
        <line x1="0" y1="-150" x2="0" y2="150" stroke="#ddd" />
      </g>
      <g >
        <g transform="scale(1.0 1.0)">
          <g transform="rotate(0 0 0)">
            <circle cx="100" cy="0" r="50" />
          </g>
        </g>
        <g transform="scale(0.97 0.97)">
          <g transform="rotate(10 0 0)">
            <circle cx="100" cy="0" r="50" />
          </g>
        </g>
        <g transform="scale(0.9409 0.9409)">
          <g transform="rotate(20 0 0)">
            <circle cx="100" cy="0" r="50" />
          </g>
        </g>
        <g transform="scale(0.912673 0.912673)">
          <g transform="rotate(30 0 0)">
            <circle cx="100" cy="0" r="50" />
          </g>
        </g>
        <g transform="scale(0.8852928099999999 0.8852928099999999)">
          <g transform="rotate(40 0 0)">
            <circle cx="100" cy="0" r="50" />
          </g>
        </g>
        <g transform="scale(0.8587340256999999 0.8587340256999999)">
          <g transform="rotate(50 0 0)">
            <circle cx="100" cy="0" r="50" />
          </g>
        </g>
        <g transform="scale(0.8329720049289998 0.8329720049289998)">
          <g transform="rotate(60 0 0)">
            <circle cx="100" cy="0" r="50" />
          </g>
        </g>
        <g transform="scale(0.8079828447811298 0.8079828447811298)">
          <g transform="rotate(70 0 0)">
            <circle cx="100" cy="0" r="50" />
          </g>
        </g>
        <g transform="scale(0.7837433594376959 0.7837433594376959)">
          <g transform="rotate(80 0 0)">
            <circle cx="100" cy="0" r="50" />
          </g>
        </g>
        <g transform="scale(0.7602310586545651 0.7602310586545651)">
          <g transform="rotate(90 0 0)">
            <circle cx="100" cy="0" r="50" />
          </g>
        </g>
        <g transform="scale(0.7374241268949281 0.7374241268949281)">
          <g transform="rotate(100 0 0)">
            <circle cx="100" cy="0" r="50" />
          </g>
        </g>
        <g transform="scale(0.7153014030880802 0.7153014030880802)">
          <g transform="rotate(110 0 0)">
            <circle cx="100" cy="0" r="50" />
          </g>
        </g>
        <g transform="scale(0.6938423609954377 0.6938423609954377)">
          <g transform="rotate(120 0 0)">
            <circle cx="100" cy="0" r="50" />
          </g>
        </g>
        <g transform="scale(0.6730270901655746 0.6730270901655746)">
          <g transform="rotate(130 0 0)">
            <circle cx="100" cy="0" r="50" />
          </g>
        </g>
        <g transform="scale(0.6528362774606074 0.6528362774606074)">
          <g transform="rotate(140 0 0)">
            <circle cx="100" cy="0" r="50" />
          </g>
        </g>
        <g transform="scale(0.6332511891367891 0.6332511891367891)">
          <g transform="rotate(150 0 0)">
            <circle cx="100" cy="0" r="50" />
          </g>
        </g>
        <g transform="scale(0.6142536534626855 0.6142536534626855)">
          <g transform="rotate(160 0 0)">
            <circle cx="100" cy="0" r="50" />
          </g>
        </g>
        <g transform="scale(0.5958260438588049 0.5958260438588049)">
          <g transform="rotate(170 0 0)">
            <circle cx="100" cy="0" r="50" />
          </g>
        </g>
        <g transform="scale(0.5779512625430407 0.5779512625430407)">
          <g transform="rotate(180 0 0)">
            <circle cx="100" cy="0" r="50" />
          </g>
        </g>
        <g transform="scale(0.5606127246667495 0.5606127246667495)">
          <g transform="rotate(190 0 0)">
            <circle cx="100" cy="0" r="50" />
          </g>
        </g>
        <g transform="scale(0.543794342926747 0.543794342926747)">
          <g transform="rotate(200 0 0)">
            <circle cx="100" cy="0" r="50" />
          </g>
        </g>
        <g transform="scale(0.5274805126389446 0.5274805126389446)">
          <g transform="rotate(210 0 0)">
            <circle cx="100" cy="0" r="50" />
          </g>
        </g>
        <g transform="scale(0.5116560972597762 0.5116560972597762)">
          <g transform="rotate(220 0 0)">
            <circle cx="100" cy="0" r="50" />
          </g>
        </g>
        <g transform="scale(0.49630641434198286 0.49630641434198286)">
          <g transform="rotate(230 0 0)">
            <circle cx="100" cy="0" r="50" />
          </g>
        </g>
        <g transform="scale(0.48141722191172337 0.48141722191172337)">
          <g transform="rotate(240 0 0)">
            <circle cx="100" cy="0" r="50" />
          </g>
        </g>
        <g transform="scale(0.4669747052543717 0.4669747052543717)">
          <g transform="rotate(250 0 0)">
            <circle cx="100" cy="0" r="50" />
          </g>
        </g>
        <g transform="scale(0.4529654640967405 0.4529654640967405)">
          <g transform="rotate(260 0 0)">
            <circle cx="100" cy="0" r="50" />
          </g>
        </g>
        <g transform="scale(0.4393765001738383 0.4393765001738383)">
          <g transform="rotate(270 0 0)">
            <circle cx="100" cy="0" r="50" />
          </g>
        </g>
        <g transform="scale(0.42619520516862314 0.42619520516862314)">
          <g transform="rotate(280 0 0)">
            <circle cx="100" cy="0" r="50" />
          </g>
        </g>
        <g transform="scale(0.4134093490135644 0.4134093490135644)">
          <g transform="rotate(290 0 0)">
            <circle cx="100" cy="0" r="50" />
          </g>
        </g>
        <g transform="scale(0.4010070685431575 0.4010070685431575)">
          <g transform="rotate(300 0 0)">
            <circle cx="100" cy="0" r="50" />
          </g>
        </g>
        <g transform="scale(0.38897685648686275 0.38897685648686275)">
          <g transform="rotate(310 0 0)">
            <circle cx="100" cy="0" r="50" />
          </g>
        </g>
        <g transform="scale(0.37730755079225686 0.37730755079225686)">
          <g transform="rotate(320 0 0)">
            <circle cx="100" cy="0" r="50" />
          </g>
        </g>
        <g transform="scale(0.36598832426848915 0.36598832426848915)">
          <g transform="rotate(330 0 0)">
            <circle cx="100" cy="0" r="50" />
          </g>
        </g>
        <g transform="scale(0.35500867454043444 0.35500867454043444)">
          <g transform="rotate(340 0 0)">
            <circle cx="100" cy="0" r="50" />
          </g>
        </g>
        <g transform="scale(0.3443584143042214 0.3443584143042214)">
          <g transform="rotate(350 0 0)">
            <circle cx="100" cy="0" r="50" />
          </g>
        </g>
        <g transform="scale(0.33402766187509475 0.33402766187509475)">
          <g transform="rotate(360 0 0)">
            <circle cx="100" cy="0" r="50" />
          </g>
        </g>
        <g transform="scale(0.3240068320188419 0.3240068320188419)">
          <g transform="rotate(370 0 0)">
            <circle cx="100" cy="0" r="50" />
          </g>
        </g>
        <g transform="scale(0.31428662705827665 0.31428662705827665)">
          <g transform="rotate(380 0 0)">
            <circle cx="100" cy="0" r="50" />
          </g>
        </g>
        <g transform="scale(0.3048580282465283 0.3048580282465283)">
          <g transform="rotate(390 0 0)">
            <circle cx="100" cy="0" r="50" />
          </g>
        </g>
        <g transform="scale(0.29571228739913247 0.29571228739913247)">
          <g transform="rotate(400 0 0)">
            <circle cx="100" cy="0" r="50" />
          </g>
        </g>
        <g transform="scale(0.2868409187771585 0.2868409187771585)">
          <g transform="rotate(410 0 0)">
            <circle cx="100" cy="0" r="50" />
          </g>
        </g>
        <g transform="scale(0.2782356912138437 0.2782356912138437)">
          <g transform="rotate(420 0 0)">
            <circle cx="100" cy="0" r="50" />
          </g>
        </g>
        <g transform="scale(0.2698886204774284 0.2698886204774284)">
          <g transform="rotate(430 0 0)">
            <circle cx="100" cy="0" r="50" />
          </g>
        </g>
        <g transform="scale(0.26179196186310555 0.26179196186310555)">
          <g transform="rotate(440 0 0)">
            <circle cx="100" cy="0" r="50" />
          </g>
        </g>
        <g transform="scale(0.25393820300721237 0.25393820300721237)">
          <g transform="rotate(450 0 0)">
            <circle cx="100" cy="0" r="50" />
          </g>
        </g>
        <g transform="scale(0.246320056916996 0.246320056916996)">
          <g transform="rotate(460 0 0)">
            <circle cx="100" cy="0" r="50" />
          </g>
        </g>
        <g transform="scale(0.2389304552094861 0.2389304552094861)">
          <g transform="rotate(470 0 0)">
            <circle cx="100" cy="0" r="50" />
          </g>
        </g>
        <g transform="scale(0.23176254155320153 0.23176254155320153)">
          <g transform="rotate(480 0 0)">
            <circle cx="100" cy="0" r="50" />
          </g>
        </g>
        <g transform="scale(0.22480966530660546 0.22480966530660546)">
          <g transform="rotate(490 0 0)">
            <circle cx="100" cy="0" r="50" />
          </g>
        </g>
        <g transform="scale(0.2180653753474073 0.2180653753474073)">
          <g transform="rotate(500 0 0)">
            <circle cx="100" cy="0" r="50" />
          </g>
        </g>
        <g transform="scale(0.21152341408698508 0.21152341408698508)">
          <g transform="rotate(510 0 0)">
            <circle cx="100" cy="0" r="50" />
          </g>
        </g>
        <g transform="scale(0.2051777116643755 0.2051777116643755)">
          <g transform="rotate(520 0 0)">
            <circle cx="100" cy="0" r="50" />
          </g>
        </g>
        <g transform="scale(0.19902238031444425 0.19902238031444425)">
          <g transform="rotate(530 0 0)">
            <circle cx="100" cy="0" r="50" />
          </g>
        </g>
        <g transform="scale(0.19305170890501092 0.19305170890501092)">
          <g transform="rotate(540 0 0)">
            <circle cx="100" cy="0" r="50" />
          </g>
        </g>
        <g transform="scale(0.18726015763786058 0.18726015763786058)">
          <g transform="rotate(550 0 0)">
            <circle cx="100" cy="0" r="50" />
          </g>
        </g>
        <g transform="scale(0.18164235290872477 0.18164235290872477)">
          <g transform="rotate(560 0 0)">
            <circle cx="100" cy="0" r="50" />
          </g>
        </g>
        <g transform="scale(0.176193082321463 0.176193082321463)">
          <g transform="rotate(570 0 0)">
            <circle cx="100" cy="0" r="50" />
          </g>
        </g>
        <g transform="scale(0.1709072898518191 0.1709072898518191)">
          <g transform="rotate(580 0 0)">
            <circle cx="100" cy="0" r="50" />
          </g>
        </g>
        <g transform="scale(0.16578007115626453 0.16578007115626453)">
          <g transform="rotate(590 0 0)">
            <circle cx="100" cy="0" r="50" />
          </g>
        </g>
        <g transform="scale(0.1608066690215766 0.1608066690215766)">
          <g transform="rotate(600 0 0)">
            <circle cx="100" cy="0" r="50" />
          </g>
        </g>
        <g transform="scale(0.1559824689509293 0.1559824689509293)">
          <g transform="rotate(610 0 0)">
            <circle cx="100" cy="0" r="50" />
          </g>
        </g>
        <g transform="scale(0.1513029948824014 0.1513029948824014)">
          <g transform="rotate(620 0 0)">
            <circle cx="100" cy="0" r="50" />
          </g>
        </g>
        <g transform="scale(0.14676390503592937 0.14676390503592937)">
          <g transform="rotate(630 0 0)">
            <circle cx="100" cy="0" r="50" />
          </g>
        </g>
        <g transform="scale(0.1423609878848515 0.1423609878848515)">
          <g transform="rotate(640 0 0)">
            <circle cx="100" cy="0" r="50" />
          </g>
        </g>
        <g transform="scale(0.13809015824830592 0.13809015824830592)">
          <g transform="rotate(650 0 0)">
            <circle cx="100" cy="0" r="50" />
          </g>
        </g>
        <g transform="scale(0.13394745350085674 0.13394745350085674)">
          <g transform="rotate(660 0 0)">
            <circle cx="100" cy="0" r="50" />
          </g>
        </g>
        <g transform="scale(0.12992902989583105 0.12992902989583105)">
          <g transform="rotate(670 0 0)">
            <circle cx="100" cy="0" r="50" />
          </g>
        </g>
        <g transform="scale(0.12603115899895612 0.12603115899895612)">
          <g transform="rotate(680 0 0)">
            <circle cx="100" cy="0" r="50" />
          </g>
        </g>
        <g transform="scale(0.12225022422898742 0.12225022422898742)">
          <g transform="rotate(690 0 0)">
            <circle cx="100" cy="0" r="50" />
          </g>
        </g>
        <g transform="scale(0.1185827175021178 0.1185827175021178)">
          <g transform="rotate(700 0 0)">
            <circle cx="100" cy="0" r="50" />
          </g>
        </g>
        <g transform="scale(0.11502523597705426 0.11502523597705426)">
          <g transform="rotate(710 0 0)">
            <circle cx="100" cy="0" r="50" />
          </g>
        </g>
        <g transform="scale(0.11157447889774263 0.11157447889774263)">
          <g transform="rotate(720 0 0)">
            <circle cx="100" cy="0" r="50" />
          </g>
        </g>
        <g transform="scale(0.10822724453081034 0.10822724453081034)">
          <g transform="rotate(730 0 0)">
            <circle cx="100" cy="0" r="50" />
          </g>
        </g>
        <g transform="scale(0.10498042719488604 0.10498042719488604)">
          <g transform="rotate(740 0 0)">
            <circle cx="100" cy="0" r="50" />
          </g>
        </g>
        <g transform="scale(0.10183101437903945 0.10183101437903945)">
          <g transform="rotate(750 0 0)">
            <circle cx="100" cy="0" r="50" />
          </g>
        </g>
        <g transform="scale(0.09877608394766826 0.09877608394766826)">
          <g transform="rotate(760 0 0)">
            <circle cx="100" cy="0" r="50" />
          </g>
        </g>
        <g transform="scale(0.09581280142923822 0.09581280142923822)">
          <g transform="rotate(770 0 0)">
            <circle cx="100" cy="0" r="50" />
          </g>
        </g>
        <g transform="scale(0.09293841738636106 0.09293841738636106)">
          <g transform="rotate(780 0 0)">
            <circle cx="100" cy="0" r="50" />
          </g>
        </g>
        <g transform="scale(0.09015026486477024 0.09015026486477024)">
          <g transform="rotate(790 0 0)">
            <circle cx="100" cy="0" r="50" />
          </g>
        </g>
        <g transform="scale(0.08744575691882712 0.08744575691882712)">
          <g transform="rotate(800 0 0)">
            <circle cx="100" cy="0" r="50" />
          </g>
        </g>
        <g transform="scale(0.0848223842112623 0.0848223842112623)">
          <g transform="rotate(810 0 0)">
            <circle cx="100" cy="0" r="50" />
          </g>
        </g>
        <g transform="scale(0.08227771268492444 0.08227771268492444)">
          <g transform="rotate(820 0 0)">
            <circle cx="100" cy="0" r="50" />
          </g>
        </g>
        <g transform="scale(0.0798093813043767 0.0798093813043767)">
          <g transform="rotate(830 0 0)">
            <circle cx="100" cy="0" r="50" />
          </g>
        </g>
        <g transform="scale(0.07741509986524539 0.07741509986524539)">
          <g transform="rotate(840 0 0)">
            <circle cx="100" cy="0" r="50" />
          </g>
        </g>
        <g transform="scale(0.07509264686928803 0.07509264686928803)">
          <g transform="rotate(850 0 0)">
            <circle cx="100" cy="0" r="50" />
          </g>
        </g>
        <g transform="scale(0.07283986746320939 0.07283986746320939)">
          <g transform="rotate(860 0 0)">
            <circle cx="100" cy="0" r="50" />
          </g>
        </g>
        <g transform="scale(0.0706546714393131 0.0706546714393131)">
          <g transform="rotate(870 0 0)">
            <circle cx="100" cy="0" r="50" />
          </g>
        </g>
        <g transform="scale(0.06853503129613371 0.06853503129613371)">
          <g transform="rotate(880 0 0)">
            <circle cx="100" cy="0" r="50" />
          </g>
        </g>
        <g transform="scale(0.0664789803572497 0.0664789803572497)">
          <g transform="rotate(890 0 0)">
            <circle cx="100" cy="0" r="50" />
          </g>
        </g>
        <g transform="scale(0.0644846109465322 0.0644846109465322)">
          <g transform="rotate(900 0 0)">
            <circle cx="100" cy="0" r="50" />
          </g>
        </g>
        <g transform="scale(0.06255007261813623 0.06255007261813623)">
          <g transform="rotate(910 0 0)">
            <circle cx="100" cy="0" r="50" />
          </g>
        </g>
        <g transform="scale(0.060673570439592144 0.060673570439592144)">
          <g transform="rotate(920 0 0)">
            <circle cx="100" cy="0" r="50" />
          </g>
        </g>
        <g transform="scale(0.05885336332640438 0.05885336332640438)">
          <g transform="rotate(930 0 0)">
            <circle cx="100" cy="0" r="50" />
          </g>
        </g>
        <g transform="scale(0.057087762426612246 0.057087762426612246)">
          <g transform="rotate(940 0 0)">
            <circle cx="100" cy="0" r="50" />
          </g>
        </g>
        <g transform="scale(0.05537512955381388 0.05537512955381388)">
          <g transform="rotate(950 0 0)">
            <circle cx="100" cy="0" r="50" />
          </g>
        </g>
        <g transform="scale(0.053713875667199464 0.053713875667199464)">
          <g transform="rotate(960 0 0)">
            <circle cx="100" cy="0" r="50" />
          </g>
        </g>
        <g transform="scale(0.05210245939718348 0.05210245939718348)">
          <g transform="rotate(970 0 0)">
            <circle cx="100" cy="0" r="50" />
          </g>
        </g>
        <g transform="scale(0.05053938561526797 0.05053938561526797)">
          <g transform="rotate(980 0 0)">
            <circle cx="100" cy="0" r="50" />
          </g>
        </g>
        <g transform="scale(0.04902320404680993 0.04902320404680993)">
          <g transform="rotate(990 0 0)">
            <circle cx="100" cy="0" r="50" />
          </g>
        </g>
        <g transform="scale(0.04755250792540563 0.04755250792540563)">
          <g transform="rotate(1000 0 0)">
            <circle cx="100" cy="0" r="50" />
          </g>
        </g>
        <g transform="scale(0.04612593268764346 0.04612593268764346)">
          <g transform="rotate(1010 0 0)">
            <circle cx="100" cy="0" r="50" />
          </g>
        </g>
        <g transform="scale(0.044742154707014155 0.044742154707014155)">
          <g transform="rotate(1020 0 0)">
            <circle cx="100" cy="0" r="50" />
          </g>
        </g>
        <g transform="scale(0.04339989006580373 0.04339989006580373)">
          <g transform="rotate(1030 0 0)">
            <circle cx="100" cy="0" r="50" />
          </g>
        </g>
        <g transform="scale(0.04209789336382962 0.04209789336382962)">
          <g transform="rotate(1040 0 0)">
            <circle cx="100" cy="0" r="50" />
          </g>
        </g>
        <g transform="scale(0.04083495656291473 0.04083495656291473)">
          <g transform="rotate(1050 0 0)">
            <circle cx="100" cy="0" r="50" />
          </g>
        </g>
        <g transform="scale(0.039609907866027284 0.039609907866027284)">
          <g transform="rotate(1060 0 0)">
            <circle cx="100" cy="0" r="50" />
          </g>
        </g>
        <g transform="scale(0.03842161063004646 0.03842161063004646)">
          <g transform="rotate(1070 0 0)">
            <circle cx="100" cy="0" r="50" />
          </g>
        </g>
        <g transform="scale(0.03726896231114507 0.03726896231114507)">
          <g transform="rotate(1080 0 0)">
            <circle cx="100" cy="0" r="50" />
          </g>
        </g>
        <g transform="scale(0.036150893441810716 0.036150893441810716)">
          <g transform="rotate(1090 0 0)">
            <circle cx="100" cy="0" r="50" />
          </g>
        </g>
        <g transform="scale(0.0350663666385564 0.0350663666385564)">
          <g transform="rotate(1100 0 0)">
            <circle cx="100" cy="0" r="50" />
          </g>
        </g>
        <g transform="scale(0.0340143756393997 0.0340143756393997)">
          <g transform="rotate(1110 0 0)">
            <circle cx="100" cy="0" r="50" />
          </g>
        </g>
        <g transform="scale(0.03299394437021771 0.03299394437021771)">
          <g transform="rotate(1120 0 0)">
            <circle cx="100" cy="0" r="50" />
          </g>
        </g>
        <g transform="scale(0.03200412603911118 0.03200412603911118)">
          <g transform="rotate(1130 0 0)">
            <circle cx="100" cy="0" r="50" />
          </g>
        </g>
        <g transform="scale(0.031044002257937842 0.031044002257937842)">
          <g transform="rotate(1140 0 0)">
            <circle cx="100" cy="0" r="50" />
          </g>
        </g>
        <g transform="scale(0.030112682190199705 0.030112682190199705)">
          <g transform="rotate(1150 0 0)">
            <circle cx="100" cy="0" r="50" />
          </g>
        </g>
        <g transform="scale(0.02920930172449371 0.02920930172449371)">
          <g transform="rotate(1160 0 0)">
            <circle cx="100" cy="0" r="50" />
          </g>
        </g>
        <g transform="scale(0.0283330226727589 0.0283330226727589)">
          <g transform="rotate(1170 0 0)">
            <circle cx="100" cy="0" r="50" />
          </g>
        </g>
        <g transform="scale(0.027483031992576134 0.027483031992576134)">
          <g transform="rotate(1180 0 0)">
            <circle cx="100" cy="0" r="50" />
          </g>
        </g>
        <g transform="scale(0.026658541032798848 0.026658541032798848)">
          <g transform="rotate(1190 0 0)">
            <circle cx="100" cy="0" r="50" />
          </g>
        </g>
        <g transform="scale(0.02585878480181488 0.02585878480181488)">
          <g transform="rotate(1200 0 0)">
            <circle cx="100" cy="0" r="50" />
          </g>
        </g>
        <g transform="scale(0.025083021257760435 0.025083021257760435)">
          <g transform="rotate(1210 0 0)">
            <circle cx="100" cy="0" r="50" />
          </g>
        </g>
        <g transform="scale(0.024330530620027623 0.024330530620027623)">
          <g transform="rotate(1220 0 0)">
            <circle cx="100" cy="0" r="50" />
          </g>
        </g>
        <g transform="scale(0.02360061470142679 0.02360061470142679)">
          <g transform="rotate(1230 0 0)">
            <circle cx="100" cy="0" r="50" />
          </g>
        </g>
        <g transform="scale(0.022892596260383986 0.022892596260383986)">
          <g transform="rotate(1240 0 0)">
            <circle cx="100" cy="0" r="50" />
          </g>
        </g>
        <g transform="scale(0.022205818372572468 0.022205818372572468)">
          <g transform="rotate(1250 0 0)">
            <circle cx="100" cy="0" r="50" />
          </g>
        </g>
        <g transform="scale(0.021539643821395293 0.021539643821395293)">
          <g transform="rotate(1260 0 0)">
            <circle cx="100" cy="0" r="50" />
          </g>
        </g>
        <g transform="scale(0.020893454506753433 0.020893454506753433)">
          <g transform="rotate(1270 0 0)">
            <circle cx="100" cy="0" r="50" />
          </g>
        </g>
        <g transform="scale(0.02026665087155083 0.02026665087155083)">
          <g transform="rotate(1280 0 0)">
            <circle cx="100" cy="0" r="50" />
          </g>
        </g>
        <g transform="scale(0.019658651345404305 0.019658651345404305)">
          <g transform="rotate(1290 0 0)">
            <circle cx="100" cy="0" r="50" />
          </g>
        </g>
        <g transform="scale(0.019068891805042176 0.019068891805042176)">
          <g transform="rotate(1300 0 0)">
            <circle cx="100" cy="0" r="50" />
          </g>
        </g>
        <g transform="scale(0.018496825050890908 0.018496825050890908)">
          <g transform="rotate(1310 0 0)">
            <circle cx="100" cy="0" r="50" />
          </g>
        </g>
        <g transform="scale(0.017941920299364183 0.017941920299364183)">
          <g transform="rotate(1320 0 0)">
            <circle cx="100" cy="0" r="50" />
          </g>
        </g>
        <g transform="scale(0.017403662690383254 0.017403662690383254)">
          <g transform="rotate(1330 0 0)">
            <circle cx="100" cy="0" r="50" />
          </g>
        </g>
        <g transform="scale(0.016881552809671758 0.016881552809671758)">
          <g transform="rotate(1340 0 0)">
            <circle cx="100" cy="0" r="50" />
          </g>
        </g>
        <g transform="scale(0.016375106225381603 0.016375106225381603)">
          <g transform="rotate(1350 0 0)">
            <circle cx="100" cy="0" r="50" />
          </g>
        </g>
        <g transform="scale(0.015883853038620156 0.015883853038620156)">
          <g transform="rotate(1360 0 0)">
            <circle cx="100" cy="0" r="50" />
          </g>
        </g>
        <g transform="scale(0.01540733744746155 0.01540733744746155)">
          <g transform="rotate(1370 0 0)">
            <circle cx="100" cy="0" r="50" />
          </g>
        </g>
        <g transform="scale(0.014945117324037704 0.014945117324037704)">
          <g transform="rotate(1380 0 0)">
            <circle cx="100" cy="0" r="50" />
          </g>
        </g>
        <g transform="scale(0.014496763804316573 0.014496763804316573)">
          <g transform="rotate(1390 0 0)">
            <circle cx="100" cy="0" r="50" />
          </g>
        </g>
        <g transform="scale(0.014061860890187074 0.014061860890187074)">
          <g transform="rotate(1400 0 0)">
            <circle cx="100" cy="0" r="50" />
          </g>
        </g>
        <g transform="scale(0.013640005063481462 0.013640005063481462)">
          <g transform="rotate(1410 0 0)">
            <circle cx="100" cy="0" r="50" />
          </g>
        </g>
        <g transform="scale(0.013230804911577018 0.013230804911577018)">
          <g transform="rotate(1420 0 0)">
            <circle cx="100" cy="0" r="50" />
          </g>
        </g>
        <g transform="scale(0.012833880764229706 0.012833880764229706)">
          <g transform="rotate(1430 0 0)">
            <circle cx="100" cy="0" r="50" />
          </g>
        </g>
      </g>
    </g>
  </g>
</svg>

