<svg width="150" height="150" viewBox="-75 -75 150 150" fill="none" stroke="black" xmlns="http://www.w3.org/2000/svg">
  <g transform="scale(0.5 0.5)">
    <g stroke-width="2">
      <g >
        <rect x="-150" y="-150" width="300" height="300" fill="white" stroke="#ddd" />
        <line x1="-150" y1="0" x2="150" y2="0" stroke="#ddd" />
        <line x1="0" y1="-150" x2="0" y2="150" stroke="#ddd" />
      </g>
      <g >
        <g transform="rotate(0.0 0 0)">
          <rect x="-100" y="-50" width="200" height="100" />
        </g>
        <g transform="rotate(20.0 0 0)">
          <rect x="-100" y="-50" width="200" height="100" />
        </g>
        <g transform="rotate(40.0 0 0)">
          <rect x="-100" y="-50" width="200" height="100" />
        </g>
        <g transform="rotate(60.0 0 0)">
          <rect x="-100" y="-50" width="200" height="100" />
        </g>
        <g transform="rotate(80.0 0 0)">
          <rect x="-100" y="-50" width="200" height="100" />
        </g>
        <g transform="rotate(100.0 0 0)">
          <rect x="-100" y="-50" width="200" height="100" />
        </g>
        <g transform="rotate(120.0 0 0)">
          <rect x="-100" y="-50" width="200" height="100" />
        </g>
        <g transform="rotate(140.0 0 0)">
          <rect x="-100" y="-50" width="200" height="100" />
        </g>
        <g transform="rotate(160.0 0 0)">
          <rect x="-100" y="-50" width="200" height="100" />
        </g>
        <g transform="rotate(180.0 0 0)">
          <rect x="-100" y="-50" width="200" height="100" />
        </g>
        <g transform="rotate(200.0 0 0)">
          <rect x="-100" y="-50" width="200" height="100" />
        </g>
        <g transform="rotate(220.0 0 0)">
          <rect x="-100" y="-50" width="200" height="100" />
        </g>
        <g transform="rotate(240.0 0 0)">
          <rect x="-100" y="-50" width="200" height="100" />
        </g>
        <g transform="rotate(260.0 0 0)">
          <rect x="-100" y="-50" width="200" height="100" />
        </g>
        <g transform="rotate(280.0 0 0)">
          <rect x="-100" y="-50" width="200" height="100" />
        </g>
        <g transform="rotate(300.0 0 0)">
          <rect x="-100" y="-50" width="200" height="100" />
        </g>
        <g transform="rotate(320.0 0 0)">
          <rect x="-100" y="-50" width="200" height="100" />
        </g>
        <g transform="rotate(340.0 0 0)">
          <rect x="-100" y="-50" width="200" height="100" />
        </g>
      </g>
    </g>
  </g>
</svg>

